<svg xmlns="http://www.w3.org/2000/svg" width="375" viewBox="0 0 375 375" height="375" version="1.0"><defs><clipPath id="a"><path d="M 77.113281 85.535156 L 279.613281 85.535156 L 279.613281 209 L 77.113281 209 Z M 77.113281 85.535156"/></clipPath></defs><path d="M 159.039062 108.128906 C 159.929688 107.648438 160.832031 107.195312 161.746094 106.761719 C 162.660156 106.332031 163.585938 105.921875 164.519531 105.539062 C 165.457031 105.15625 166.402344 104.792969 167.355469 104.460938 C 168.308594 104.125 169.269531 103.8125 170.238281 103.527344 C 171.210938 103.242188 172.183594 102.980469 173.167969 102.746094 C 174.152344 102.507812 175.140625 102.296875 176.132812 102.113281 C 177.128906 101.929688 178.125 101.769531 179.128906 101.636719 C 180.128906 101.503906 181.136719 101.394531 182.144531 101.3125 C 183.152344 101.234375 184.160156 101.175781 185.171875 101.148438 C 186.179688 101.117188 187.191406 101.113281 188.203125 101.136719 C 189.214844 101.160156 190.222656 101.207031 191.230469 101.28125 C 192.238281 101.355469 193.246094 101.457031 194.25 101.585938 C 195.25 101.710938 196.25 101.863281 197.246094 102.039062 C 198.242188 102.21875 199.230469 102.421875 200.214844 102.652344 C 201.199219 102.878906 202.179688 103.132812 203.148438 103.414062 C 204.121094 103.691406 205.085938 103.996094 206.042969 104.324219 C 206.996094 104.652344 207.945312 105.007812 208.882812 105.386719 C 209.820312 105.761719 210.746094 106.164062 211.664062 106.589844 C 212.582031 107.015625 213.488281 107.464844 214.378906 107.9375 C 215.273438 108.410156 216.15625 108.902344 217.023438 109.421875 C 217.890625 109.9375 218.746094 110.476562 219.585938 111.039062 C 220.425781 111.601562 221.253906 112.183594 222.0625 112.789062 C 222.875 113.394531 223.667969 114.015625 224.445312 114.664062 C 225.226562 115.308594 225.984375 115.972656 226.730469 116.65625 C 227.472656 117.339844 228.199219 118.042969 228.90625 118.765625 C 229.617188 119.488281 230.304688 120.226562 230.972656 120.984375 C 231.644531 121.742188 232.292969 122.515625 232.921875 123.304688 C 233.550781 124.097656 234.160156 124.902344 234.75 125.722656 C 235.335938 126.546875 235.902344 127.382812 236.449219 128.234375 C 236.992188 129.085938 237.515625 129.949219 238.015625 130.828125 C 238.515625 131.707031 238.996094 132.597656 239.449219 133.5 C 239.902344 134.402344 240.335938 135.316406 240.742188 136.242188 C 244.640625 136.34375 248.355469 137.226562 251.882812 138.886719 C 251.464844 137.597656 251.007812 136.324219 250.511719 135.066406 C 250.019531 133.804688 249.488281 132.5625 248.921875 131.332031 C 248.351562 130.105469 247.746094 128.894531 247.109375 127.703125 C 246.46875 126.507812 245.792969 125.335938 245.082031 124.183594 C 244.375 123.03125 243.628906 121.902344 242.851562 120.792969 C 242.074219 119.6875 241.265625 118.601562 240.425781 117.542969 C 239.585938 116.480469 238.710938 115.445312 237.808594 114.4375 C 236.90625 113.429688 235.972656 112.449219 235.011719 111.496094 C 234.050781 110.542969 233.0625 109.621094 232.046875 108.726562 C 231.03125 107.832031 229.988281 106.96875 228.921875 106.136719 C 227.855469 105.300781 226.761719 104.503906 225.648438 103.734375 C 224.535156 102.96875 223.398438 102.234375 222.238281 101.53125 C 221.078125 100.832031 219.902344 100.167969 218.703125 99.539062 C 217.503906 98.90625 216.289062 98.3125 215.054688 97.753906 C 213.820312 97.199219 212.574219 96.675781 211.308594 96.191406 C 210.042969 95.710938 208.765625 95.261719 207.476562 94.855469 C 206.183594 94.449219 204.882812 94.078125 203.570312 93.746094 C 202.257812 93.417969 200.9375 93.125 199.605469 92.875 C 198.277344 92.621094 196.9375 92.410156 195.597656 92.238281 C 194.253906 92.0625 192.90625 91.929688 191.554688 91.839844 C 190.207031 91.746094 188.851562 91.695312 187.5 91.679688 C 186.144531 91.667969 184.792969 91.695312 183.441406 91.765625 C 182.089844 91.832031 180.738281 91.941406 179.394531 92.089844 C 178.046875 92.238281 176.707031 92.425781 175.375 92.652344 C 174.039062 92.878906 172.710938 93.148438 171.394531 93.453125 C 170.074219 93.761719 168.765625 94.105469 167.46875 94.488281 C 166.167969 94.875 164.882812 95.296875 163.609375 95.757812 C 162.339844 96.21875 161.078125 96.714844 159.835938 97.25 C 158.59375 97.785156 157.367188 98.359375 156.15625 98.964844 C 154.949219 99.574219 153.757812 100.21875 152.585938 100.894531 C 151.414062 101.574219 150.265625 102.289062 149.136719 103.035156 C 148.007812 103.78125 146.902344 104.5625 145.820312 105.375 C 150.152344 106.652344 154.558594 107.566406 159.039062 108.128906 Z M 159.039062 108.128906"/><path d="M 243.851562 174.800781 C 243.5625 175.90625 243.242188 177.003906 242.890625 178.09375 C 242.539062 179.179688 242.15625 180.257812 241.742188 181.320312 C 241.328125 182.386719 240.882812 183.441406 240.40625 184.480469 C 239.929688 185.519531 239.425781 186.542969 238.890625 187.554688 C 238.351562 188.5625 237.789062 189.558594 237.195312 190.535156 C 236.601562 191.511719 235.980469 192.472656 235.328125 193.414062 C 234.679688 194.351562 234.003906 195.273438 233.300781 196.175781 C 232.597656 197.078125 231.867188 197.957031 231.113281 198.816406 C 230.359375 199.675781 229.578125 200.511719 228.773438 201.324219 C 227.972656 202.140625 227.144531 202.929688 226.296875 203.695312 C 225.445312 204.460938 224.574219 205.199219 223.683594 205.914062 C 222.789062 206.628906 221.875 207.316406 220.941406 207.976562 C 220.011719 208.640625 219.058594 209.273438 218.089844 209.878906 C 217.121094 210.484375 216.132812 211.0625 215.128906 211.609375 C 214.125 212.160156 213.105469 212.679688 212.074219 213.167969 C 211.039062 213.65625 209.992188 214.113281 208.929688 214.542969 C 207.871094 214.972656 206.796875 215.367188 205.714844 215.734375 C 204.632812 216.097656 203.539062 216.433594 202.433594 216.734375 C 201.332031 217.035156 200.21875 217.304688 199.101562 217.542969 C 197.984375 217.78125 196.859375 217.984375 195.726562 218.15625 C 194.597656 218.328125 193.460938 218.464844 192.324219 218.570312 C 191.183594 218.675781 190.042969 218.75 188.898438 218.789062 C 187.757812 218.828125 186.613281 218.832031 185.46875 218.804688 C 184.328125 218.777344 183.183594 218.714844 182.046875 218.621094 C 180.90625 218.527344 179.769531 218.398438 178.636719 218.238281 C 177.503906 218.078125 176.378906 217.886719 175.257812 217.660156 C 174.136719 217.433594 173.019531 217.175781 171.914062 216.882812 C 170.808594 216.59375 169.710938 216.269531 168.625 215.914062 C 167.539062 215.558594 166.460938 215.171875 165.398438 214.753906 C 164.332031 214.335938 163.28125 213.890625 162.242188 213.410156 C 161.203125 212.929688 160.179688 212.421875 159.171875 211.882812 C 158.164062 211.34375 157.171875 210.777344 156.195312 210.179688 C 151.976562 211.292969 147.703125 212.117188 143.378906 212.664062 C 145.6875 214.570312 148.117188 216.320312 150.65625 217.90625 C 153.199219 219.492188 155.835938 220.90625 158.5625 222.148438 C 161.289062 223.390625 164.085938 224.445312 166.953125 225.320312 C 169.820312 226.191406 172.734375 226.875 175.6875 227.363281 C 178.644531 227.855469 181.621094 228.148438 184.617188 228.246094 C 187.613281 228.347656 190.601562 228.25 193.582031 227.953125 C 196.566406 227.660156 199.515625 227.171875 202.433594 226.488281 C 205.351562 225.808594 208.214844 224.9375 211.019531 223.878906 C 213.820312 222.820312 216.542969 221.582031 219.183594 220.167969 C 221.824219 218.75 224.363281 217.167969 226.792969 215.417969 C 229.226562 213.667969 231.535156 211.765625 233.71875 209.710938 C 235.898438 207.660156 237.9375 205.472656 239.832031 203.148438 C 241.726562 200.828125 243.460938 198.394531 245.035156 195.84375 C 246.609375 193.292969 248.007812 190.652344 249.234375 187.917969 C 250.460938 185.1875 251.503906 182.382812 252.359375 179.511719 C 253.21875 176.644531 253.882812 173.730469 254.355469 170.769531 C 250.722656 171.769531 247.222656 173.113281 243.851562 174.800781 Z M 243.851562 174.800781"/><g clip-path="url(#a)"><path fill="#5E17EB" d="M 189.085938 188.667969 C 173.753906 194.773438 156.792969 199.109375 144.5625 200.09375 C 157.980469 192.996094 166.261719 185.304688 174.25 176.4375 C 161.527344 179.589844 143.976562 179.589844 130.558594 173.480469 C 148.117188 173.082031 159.359375 168.550781 165.277344 162.835938 C 144.960938 165.199219 119.320312 150.808594 110.644531 140.746094 C 121.714844 143.917969 128.804688 144.585938 141.210938 143.902344 C 128.195312 132.667969 120.109375 117.6875 117.742188 107.636719 C 132.246094 116.582031 141.792969 120.84375 159.953125 122.222656 C 174.101562 140.035156 205.707031 154.160156 233.304688 146.355469 C 234.332031 146.351562 235.351562 146.425781 236.371094 146.566406 C 237.386719 146.710938 238.390625 146.921875 239.378906 147.207031 C 240.367188 147.488281 241.328125 147.839844 242.265625 148.257812 C 243.207031 148.675781 244.109375 149.160156 244.980469 149.703125 C 245.851562 150.25 246.679688 150.851562 247.464844 151.515625 C 248.25 152.175781 248.988281 152.886719 249.671875 153.652344 C 250.359375 154.417969 250.988281 155.226562 251.558594 156.078125 C 252.132812 156.933594 252.640625 157.820312 253.089844 158.746094 C 241.507812 163.667969 231.992188 172.140625 225.167969 182.527344 C 226.921875 180.773438 228.773438 179.128906 230.71875 177.589844 C 232.664062 176.050781 234.691406 174.632812 236.804688 173.335938 C 238.917969 172.035156 241.097656 170.863281 243.347656 169.820312 C 245.597656 168.773438 247.898438 167.867188 250.253906 167.089844 C 252.609375 166.316406 255.003906 165.683594 257.433594 165.1875 C 259.863281 164.695312 262.316406 164.34375 264.785156 164.136719 C 267.257812 163.929688 269.734375 163.867188 272.210938 163.953125 C 274.691406 164.035156 277.15625 164.261719 279.609375 164.632812 C 279.179688 163.664062 278.683594 162.730469 278.121094 161.835938 C 277.558594 160.9375 276.929688 160.085938 276.246094 159.28125 C 275.558594 158.472656 274.816406 157.71875 274.019531 157.019531 C 273.226562 156.320312 272.382812 155.683594 271.496094 155.105469 C 270.605469 154.527344 269.683594 154.015625 268.71875 153.570312 C 267.757812 153.128906 266.769531 152.753906 265.753906 152.453125 C 264.738281 152.152344 263.703125 151.925781 262.65625 151.773438 C 261.605469 151.621094 260.550781 151.546875 259.492188 151.546875 C 258.847656 150.550781 258.128906 149.605469 257.339844 148.71875 C 256.546875 147.832031 255.695312 147.007812 254.777344 146.25 C 253.859375 145.496094 252.890625 144.8125 251.867188 144.203125 C 250.84375 143.597656 249.78125 143.070312 248.679688 142.625 C 247.578125 142.183594 246.445312 141.824219 245.289062 141.554688 C 244.128906 141.285156 242.957031 141.101562 241.773438 141.011719 C 240.585938 140.921875 239.398438 140.921875 238.214844 141.015625 C 237.027344 141.105469 235.855469 141.285156 234.699219 141.558594 C 230.570312 142.226562 226.414062 142.558594 222.230469 142.554688 C 197.707031 142.554688 176.035156 130.988281 161.863281 113.175781 C 156.492188 112.710938 151.207031 111.757812 146.007812 110.320312 C 140.8125 108.882812 135.789062 106.984375 130.941406 104.621094 C 126.089844 102.261719 121.5 99.476562 117.164062 96.269531 C 112.828125 93.066406 108.820312 89.492188 105.140625 85.546875 C 105.097656 86.511719 105.082031 87.484375 105.082031 88.457031 C 105.074219 93.113281 105.527344 97.722656 106.4375 102.289062 C 107.347656 106.851562 108.699219 111.28125 110.488281 115.582031 C 112.277344 119.878906 114.472656 123.957031 117.074219 127.816406 C 119.675781 131.679688 122.632812 135.246094 125.941406 138.519531 C 121.191406 137.472656 116.558594 136.039062 112.046875 134.222656 C 107.535156 132.40625 103.199219 130.234375 99.046875 127.703125 C 94.894531 125.171875 90.976562 122.3125 87.296875 119.132812 C 83.617188 115.953125 80.222656 112.496094 77.113281 108.753906 C 77.757812 110.628906 78.464844 112.480469 79.234375 114.304688 C 80.007812 116.132812 80.835938 117.933594 81.726562 119.703125 C 82.617188 121.476562 83.570312 123.214844 84.578125 124.921875 C 85.585938 126.628906 86.648438 128.300781 87.769531 129.9375 C 88.890625 131.574219 90.066406 133.167969 91.296875 134.726562 C 92.523438 136.28125 93.804688 137.796875 95.136719 139.265625 C 96.464844 140.734375 97.84375 142.160156 99.269531 143.539062 C 100.695312 144.914062 102.167969 146.242188 103.683594 147.519531 C 105.199219 148.800781 106.757812 150.027344 108.355469 151.199219 C 109.957031 152.371094 111.59375 153.492188 113.265625 154.554688 C 114.941406 155.617188 116.648438 156.625 118.390625 157.574219 C 120.132812 158.519531 121.902344 159.410156 123.707031 160.238281 C 125.507812 161.066406 127.335938 161.835938 129.1875 162.542969 C 131.042969 163.246094 132.917969 163.890625 134.8125 164.46875 C 136.710938 165.050781 138.625 165.566406 140.558594 166.015625 C 142.488281 166.464844 144.433594 166.851562 146.390625 167.171875 C 141.695312 167.933594 136.96875 168.3125 132.210938 168.308594 C 125.773438 168.316406 119.414062 167.625 113.132812 166.238281 C 106.847656 164.847656 100.792969 162.796875 94.960938 160.074219 C 98.5625 163.800781 102.472656 167.171875 106.6875 170.1875 C 110.902344 173.203125 115.355469 175.8125 120.042969 178.023438 C 124.730469 180.230469 129.582031 182 134.589844 183.332031 C 139.601562 184.660156 144.6875 185.53125 149.855469 185.9375 C 144.699219 191.019531 138.972656 195.347656 132.679688 198.929688 C 126.382812 202.507812 119.734375 205.21875 112.730469 207.054688 C 118.625 208.175781 124.574219 208.730469 130.578125 208.726562 C 135.839844 208.734375 141.066406 208.308594 146.257812 207.449219 C 151.449219 206.589844 156.535156 205.304688 161.511719 203.597656 C 166.488281 201.890625 171.292969 199.785156 175.917969 197.28125 C 180.546875 194.773438 184.933594 191.902344 189.085938 188.667969 Z M 189.085938 188.667969"/></g><g fill="#9F3F73"><g><g><path d="M 20.515625 -14.90625 C 20.515625 -12.28125 20.617188 -10.203125 20.828125 -8.671875 C 21.035156 -7.148438 21.441406 -5.96875 22.046875 -5.125 C 22.648438 -4.28125 23.515625 -3.726562 24.640625 -3.46875 C 25.773438 -3.207031 27.265625 -3.050781 29.109375 -3 L 29.109375 0 L 3.546875 0 L 3.546875 -3 C 5.390625 -3.050781 6.875 -3.21875 8 -3.5 C 9.132812 -3.789062 10.015625 -4.332031 10.640625 -5.125 C 11.273438 -5.914062 11.695312 -7.035156 11.90625 -8.484375 C 12.125 -9.929688 12.234375 -11.890625 12.234375 -14.359375 L 12.234375 -46.390625 C 12.234375 -48.597656 12.140625 -50.425781 11.953125 -51.875 C 11.765625 -53.320312 11.394531 -54.460938 10.84375 -55.296875 C 10.289062 -56.140625 9.488281 -56.734375 8.4375 -57.078125 C 7.382812 -57.421875 6.019531 -57.644531 4.34375 -57.75 L 4.34375 -60.75 L 28.328125 -60.75 L 28.328125 -57.75 C 26.640625 -57.695312 25.28125 -57.484375 24.25 -57.109375 C 23.226562 -56.742188 22.441406 -56.128906 21.890625 -55.265625 C 21.335938 -54.398438 20.96875 -53.203125 20.78125 -51.671875 C 20.601562 -50.148438 20.515625 -48.203125 20.515625 -45.828125 Z M 20.515625 -14.90625" transform="translate(181.386 203.786)"/></g></g></g><path transform="matrix(.75 0 0 .75 44.688 137.718)" fill="none" d="M 205.524724 64.120981 C 205.524724 67.631398 205.660141 70.407439 205.930974 72.443898 C 206.222641 74.464731 206.774724 76.037648 207.576807 77.167857 C 208.378891 78.28244 209.535141 79.016815 211.045558 79.37619 C 212.550766 79.71994 214.529933 79.923065 216.97785 79.995982 L 216.97785 84.00119 L 182.899723 84.00119 L 182.899723 79.995982 C 185.363264 79.923065 187.347639 79.704315 188.852848 79.324107 C 190.363265 78.933482 191.53514 78.214732 192.373681 77.167857 C 193.212223 76.105357 193.769515 74.615773 194.040348 72.699106 C 194.332015 70.766815 194.477848 68.152231 194.477848 64.865772 L 194.477848 22.157436 C 194.477848 19.214728 194.352848 16.777228 194.092432 14.839727 C 193.852848 12.907436 193.368473 11.381394 192.62889 10.266811 C 191.894515 9.14181 190.821598 8.350144 189.420556 7.907435 C 188.014306 7.443894 186.191389 7.147019 183.951806 7.006394 L 183.951806 3.001185 L 215.925766 3.001185 L 215.925766 7.006394 C 213.680975 7.074102 211.873683 7.36056 210.503891 7.855352 C 209.149724 8.334519 208.108058 9.157435 207.373682 10.318894 C 206.634099 11.469936 206.139307 13.058477 205.884099 15.094936 C 205.644516 17.136603 205.524724 19.730353 205.524724 22.881395 Z M 205.524724 64.120981" stroke="#5E17EB" stroke-width="3.945"/></svg>